<mxfile host="Electron" agent="Mozilla/5.0 (Windows NT 10.0; Win64; x64) AppleWebKit/537.36 (KHTML, like Gecko) draw.io/24.7.17 Chrome/128.0.6613.36 Electron/32.0.1 Safari/537.36" version="24.7.17">
  <diagram name="Page-1" id="T4etOTtoKBo-cRKfonAr">
    <mxGraphModel dx="1104" dy="1616" grid="1" gridSize="10" guides="1" tooltips="1" connect="1" arrows="1" fold="1" page="1" pageScale="1" pageWidth="850" pageHeight="1100" math="0" shadow="0">
      <root>
        <mxCell id="0" />
        <mxCell id="1" parent="0" />
        <mxCell id="LSE3tJzLOPeWC8bU5sy8-296" value="" style="rounded=1;whiteSpace=wrap;html=1;rotation=90;fillColor=#FFFFFF;strokeColor=#007FFF;" vertex="1" parent="1">
          <mxGeometry x="375.90999999999997" y="1191.7" width="306.59" height="288.58" as="geometry" />
        </mxCell>
        <mxCell id="LSE3tJzLOPeWC8bU5sy8-270" value="&lt;b&gt;&lt;font style=&quot;font-size: 16px;&quot;&gt;&amp;nbsp; &amp;nbsp; &amp;nbsp; &amp;nbsp; &amp;nbsp; &amp;nbsp; &amp;nbsp; &amp;nbsp; Payment Method&lt;/font&gt;&lt;/b&gt;" style="strokeWidth=1;shadow=0;dashed=0;align=center;html=1;shape=mxgraph.mockup.forms.rrect;rSize=0;strokeColor=#006EAF;fontColor=#ffffff;align=left;spacingLeft=5;resizeWidth=1;fillColor=#3399FF;" vertex="1" parent="1">
          <mxGeometry x="10.229999999999997" y="1337" width="290" height="25" as="geometry" />
        </mxCell>
        <mxCell id="LSE3tJzLOPeWC8bU5sy8-251" value="" style="rounded=1;whiteSpace=wrap;html=1;rotation=90;fillColor=#FFFFFF;strokeColor=#007FFF;" vertex="1" parent="1">
          <mxGeometry x="7.86" y="701.11" width="332.25" height="300.64" as="geometry" />
        </mxCell>
        <mxCell id="LSE3tJzLOPeWC8bU5sy8-214" value="" style="rounded=0;whiteSpace=wrap;html=1;rotation=90;" vertex="1" parent="1">
          <mxGeometry x="325" y="664.1" width="389.38" height="292.44" as="geometry" />
        </mxCell>
        <mxCell id="LSE3tJzLOPeWC8bU5sy8-1" value="" style="verticalLabelPosition=bottom;verticalAlign=top;html=1;shadow=0;dashed=0;strokeWidth=1;shape=mxgraph.android.phone2;strokeColor=#82b366;fillColor=#d5e8d4;" vertex="1" parent="1">
          <mxGeometry x="361.21000000000004" y="570" width="310" height="480" as="geometry" />
        </mxCell>
        <mxCell id="LSE3tJzLOPeWC8bU5sy8-2" value="" style="strokeWidth=2;html=1;shape=mxgraph.flowchart.delay;whiteSpace=wrap;direction=north;fillColor=#E6E6E6;movable=1;resizable=1;rotatable=1;deletable=1;editable=1;locked=0;connectable=1;" vertex="1" parent="1">
          <mxGeometry x="418.21000000000004" y="670" width="180" height="310" as="geometry" />
        </mxCell>
        <mxCell id="LSE3tJzLOPeWC8bU5sy8-3" value="2" style="strokeWidth=2;html=1;shape=mxgraph.flowchart.terminator;whiteSpace=wrap;" vertex="1" parent="1">
          <mxGeometry x="462.96000000000004" y="743" width="20" height="20" as="geometry" />
        </mxCell>
        <mxCell id="LSE3tJzLOPeWC8bU5sy8-4" value="" style="strokeWidth=2;html=1;shape=mxgraph.flowchart.terminator;whiteSpace=wrap;" vertex="1" parent="1">
          <mxGeometry x="483.21000000000004" y="687" width="20" height="13" as="geometry" />
        </mxCell>
        <mxCell id="LSE3tJzLOPeWC8bU5sy8-5" value="1" style="strokeWidth=2;html=1;shape=mxgraph.flowchart.terminator;whiteSpace=wrap;" vertex="1" parent="1">
          <mxGeometry x="428.21000000000004" y="743" width="20" height="20" as="geometry" />
        </mxCell>
        <mxCell id="LSE3tJzLOPeWC8bU5sy8-6" value="23" style="strokeWidth=2;html=1;shape=mxgraph.flowchart.terminator;whiteSpace=wrap;" vertex="1" parent="1">
          <mxGeometry x="540.21" y="880" width="20" height="20" as="geometry" />
        </mxCell>
        <mxCell id="LSE3tJzLOPeWC8bU5sy8-7" value="25" style="strokeWidth=2;html=1;shape=mxgraph.flowchart.terminator;whiteSpace=wrap;fillColor=#60a917;strokeColor=#2D7600;fontColor=#ffffff;" vertex="1" parent="1">
          <mxGeometry x="538.21" y="911" width="20" height="20" as="geometry" />
        </mxCell>
        <mxCell id="LSE3tJzLOPeWC8bU5sy8-8" value="3" style="strokeWidth=2;html=1;shape=mxgraph.flowchart.terminator;whiteSpace=wrap;" vertex="1" parent="1">
          <mxGeometry x="428.21000000000004" y="777" width="20" height="20" as="geometry" />
        </mxCell>
        <mxCell id="LSE3tJzLOPeWC8bU5sy8-9" value="5" style="strokeWidth=2;html=1;shape=mxgraph.flowchart.terminator;whiteSpace=wrap;fillColor=#60a917;fontColor=#ffffff;strokeColor=#2D7600;" vertex="1" parent="1">
          <mxGeometry x="428.21000000000004" y="814" width="20" height="20" as="geometry" />
        </mxCell>
        <mxCell id="LSE3tJzLOPeWC8bU5sy8-10" value="9" style="strokeWidth=2;html=1;shape=mxgraph.flowchart.terminator;whiteSpace=wrap;fillColor=#60a917;fontColor=#ffffff;strokeColor=#2D7600;" vertex="1" parent="1">
          <mxGeometry x="428.21000000000004" y="880" width="20" height="20" as="geometry" />
        </mxCell>
        <mxCell id="LSE3tJzLOPeWC8bU5sy8-11" value="13" style="strokeWidth=2;html=1;shape=mxgraph.flowchart.terminator;whiteSpace=wrap;fillColor=#60a917;fontColor=#ffffff;strokeColor=#2D7600;" vertex="1" parent="1">
          <mxGeometry x="428.21000000000004" y="946" width="20" height="20" as="geometry" />
        </mxCell>
        <mxCell id="LSE3tJzLOPeWC8bU5sy8-12" value="26" style="strokeWidth=2;html=1;shape=mxgraph.flowchart.terminator;whiteSpace=wrap;fillColor=#60a917;fontColor=#ffffff;strokeColor=#2D7600;" vertex="1" parent="1">
          <mxGeometry x="569.21" y="913" width="20" height="20" as="geometry" />
        </mxCell>
        <mxCell id="LSE3tJzLOPeWC8bU5sy8-13" value="28" style="strokeWidth=2;html=1;shape=mxgraph.flowchart.terminator;whiteSpace=wrap;fillColor=#60a917;fontColor=#ffffff;strokeColor=#2D7600;" vertex="1" parent="1">
          <mxGeometry x="567.21" y="944" width="20" height="20" as="geometry" />
        </mxCell>
        <mxCell id="LSE3tJzLOPeWC8bU5sy8-34" value="" style="shape=mxgraph.signs.transportation.airplane_1;html=1;pointerEvents=1;fillColor=#000000;strokeColor=none;verticalLabelPosition=bottom;verticalAlign=top;align=center;" vertex="1" parent="1">
          <mxGeometry x="398.21000000000004" y="625" width="99" height="35" as="geometry" />
        </mxCell>
        <mxCell id="LSE3tJzLOPeWC8bU5sy8-35" value="" style="verticalLabelPosition=bottom;verticalAlign=top;html=1;shadow=0;dashed=0;strokeWidth=1;shape=mxgraph.android.phone2;strokeColor=#82b366;fillColor=#d5e8d4;" vertex="1" parent="1">
          <mxGeometry x="10.23" y="-510" width="310" height="480" as="geometry" />
        </mxCell>
        <mxCell id="LSE3tJzLOPeWC8bU5sy8-36" value="" style="strokeWidth=1;shadow=0;dashed=0;align=center;html=1;shape=mxgraph.mockup.forms.rrect;rSize=0;strokeColor=#999999;fillColor=#ffffff;" vertex="1" parent="1">
          <mxGeometry x="60.23" y="-420" width="200" height="300" as="geometry" />
        </mxCell>
        <mxCell id="LSE3tJzLOPeWC8bU5sy8-37" value="Sign In" style="strokeWidth=1;shadow=0;dashed=0;align=center;html=1;shape=mxgraph.mockup.forms.anchor;fontSize=12;fontColor=#666666;align=left;resizeWidth=1;spacingLeft=0;" vertex="1" parent="LSE3tJzLOPeWC8bU5sy8-36">
          <mxGeometry width="100" height="20" relative="1" as="geometry">
            <mxPoint x="10" y="10" as="offset" />
          </mxGeometry>
        </mxCell>
        <mxCell id="LSE3tJzLOPeWC8bU5sy8-38" value="" style="shape=line;strokeColor=#ddeeff;strokeWidth=2;html=1;resizeWidth=1;" vertex="1" parent="LSE3tJzLOPeWC8bU5sy8-36">
          <mxGeometry width="180" height="10" relative="1" as="geometry">
            <mxPoint x="10" y="30" as="offset" />
          </mxGeometry>
        </mxCell>
        <mxCell id="LSE3tJzLOPeWC8bU5sy8-39" value="User Name:" style="strokeWidth=1;shadow=0;dashed=0;align=center;html=1;shape=mxgraph.mockup.forms.anchor;fontSize=12;fontColor=#666666;align=left;resizeWidth=1;spacingLeft=0;" vertex="1" parent="LSE3tJzLOPeWC8bU5sy8-36">
          <mxGeometry width="100" height="20" relative="1" as="geometry">
            <mxPoint x="10" y="40" as="offset" />
          </mxGeometry>
        </mxCell>
        <mxCell id="LSE3tJzLOPeWC8bU5sy8-40" value="johndoe" style="strokeWidth=1;shadow=0;dashed=0;align=center;html=1;shape=mxgraph.mockup.forms.rrect;rSize=0;strokeColor=#999999;fontColor=#666666;align=left;spacingLeft=5;resizeWidth=1;" vertex="1" parent="LSE3tJzLOPeWC8bU5sy8-36">
          <mxGeometry width="150" height="25" relative="1" as="geometry">
            <mxPoint x="10" y="60" as="offset" />
          </mxGeometry>
        </mxCell>
        <mxCell id="LSE3tJzLOPeWC8bU5sy8-41" value="Password:" style="strokeWidth=1;shadow=0;dashed=0;align=center;html=1;shape=mxgraph.mockup.forms.anchor;fontSize=12;fontColor=#666666;align=left;resizeWidth=1;spacingLeft=0;" vertex="1" parent="LSE3tJzLOPeWC8bU5sy8-36">
          <mxGeometry width="100" height="20" relative="1" as="geometry">
            <mxPoint x="10" y="95" as="offset" />
          </mxGeometry>
        </mxCell>
        <mxCell id="LSE3tJzLOPeWC8bU5sy8-42" value="********" style="strokeWidth=1;shadow=0;dashed=0;align=center;html=1;shape=mxgraph.mockup.forms.rrect;rSize=0;strokeColor=#999999;fontColor=#666666;align=left;spacingLeft=5;resizeWidth=1;" vertex="1" parent="LSE3tJzLOPeWC8bU5sy8-36">
          <mxGeometry width="150" height="25" relative="1" as="geometry">
            <mxPoint x="10" y="115" as="offset" />
          </mxGeometry>
        </mxCell>
        <mxCell id="LSE3tJzLOPeWC8bU5sy8-43" value="LOGIN" style="strokeWidth=1;shadow=0;dashed=0;align=center;html=1;shape=mxgraph.mockup.forms.rrect;rSize=5;strokeColor=none;fontColor=#ffffff;fillColor=#66bbff;fontSize=16;fontStyle=1;" vertex="1" parent="LSE3tJzLOPeWC8bU5sy8-36">
          <mxGeometry y="1" width="80" height="30" relative="1" as="geometry">
            <mxPoint x="20" y="-150" as="offset" />
          </mxGeometry>
        </mxCell>
        <mxCell id="LSE3tJzLOPeWC8bU5sy8-44" value="Forgot Password?" style="strokeWidth=1;shadow=0;dashed=0;align=center;html=1;shape=mxgraph.mockup.forms.anchor;fontSize=12;fontColor=#9999ff;align=left;spacingLeft=0;fontStyle=4;resizeWidth=1;" vertex="1" parent="LSE3tJzLOPeWC8bU5sy8-36">
          <mxGeometry y="1" width="150" height="20" relative="1" as="geometry">
            <mxPoint x="10" y="-110" as="offset" />
          </mxGeometry>
        </mxCell>
        <mxCell id="LSE3tJzLOPeWC8bU5sy8-45" value="" style="shape=line;strokeColor=#ddeeff;strokeWidth=2;html=1;resizeWidth=1;" vertex="1" parent="LSE3tJzLOPeWC8bU5sy8-36">
          <mxGeometry y="1" width="180" height="10" relative="1" as="geometry">
            <mxPoint x="10" y="-90" as="offset" />
          </mxGeometry>
        </mxCell>
        <mxCell id="LSE3tJzLOPeWC8bU5sy8-46" value="New User" style="strokeWidth=1;shadow=0;dashed=0;align=center;html=1;shape=mxgraph.mockup.forms.anchor;fontSize=12;fontColor=#666666;align=left;spacingLeft=0;resizeWidth=1;" vertex="1" parent="LSE3tJzLOPeWC8bU5sy8-36">
          <mxGeometry y="1" width="150" height="20" relative="1" as="geometry">
            <mxPoint x="10" y="-70" as="offset" />
          </mxGeometry>
        </mxCell>
        <mxCell id="LSE3tJzLOPeWC8bU5sy8-47" value="REGISTER" style="strokeWidth=1;shadow=0;dashed=0;align=center;html=1;shape=mxgraph.mockup.forms.rrect;rSize=5;strokeColor=none;fontColor=#ffffff;fillColor=#66bbff;fontSize=16;fontStyle=1;" vertex="1" parent="LSE3tJzLOPeWC8bU5sy8-36">
          <mxGeometry y="1" width="90" height="30" relative="1" as="geometry">
            <mxPoint x="20" y="-50" as="offset" />
          </mxGeometry>
        </mxCell>
        <mxCell id="LSE3tJzLOPeWC8bU5sy8-48" value="" style="verticalLabelPosition=bottom;verticalAlign=top;html=1;shadow=0;dashed=0;strokeWidth=1;shape=mxgraph.android.phone2;strokeColor=#82b366;fillColor=#d5e8d4;" vertex="1" parent="1">
          <mxGeometry x="370.23" y="-507" width="310" height="480" as="geometry" />
        </mxCell>
        <mxCell id="LSE3tJzLOPeWC8bU5sy8-49" value="" style="strokeWidth=1;shadow=0;dashed=0;align=center;html=1;shape=mxgraph.mockup.forms.rrect;rSize=0;strokeColor=#999999;fillColor=#ffffff;" vertex="1" parent="1">
          <mxGeometry x="425.23" y="-427" width="200" height="330" as="geometry" />
        </mxCell>
        <mxCell id="LSE3tJzLOPeWC8bU5sy8-50" value="Sign Up" style="strokeWidth=1;shadow=0;dashed=0;align=center;html=1;shape=mxgraph.mockup.forms.anchor;fontSize=12;fontColor=#666666;align=left;resizeWidth=1;spacingLeft=0;" vertex="1" parent="LSE3tJzLOPeWC8bU5sy8-49">
          <mxGeometry width="100" height="20" relative="1" as="geometry">
            <mxPoint x="10" y="10" as="offset" />
          </mxGeometry>
        </mxCell>
        <mxCell id="LSE3tJzLOPeWC8bU5sy8-51" value="" style="shape=line;strokeColor=#ddeeff;strokeWidth=2;html=1;resizeWidth=1;" vertex="1" parent="LSE3tJzLOPeWC8bU5sy8-49">
          <mxGeometry width="180" height="10" relative="1" as="geometry">
            <mxPoint x="10" y="30" as="offset" />
          </mxGeometry>
        </mxCell>
        <mxCell id="LSE3tJzLOPeWC8bU5sy8-52" value="User Name:" style="strokeWidth=1;shadow=0;dashed=0;align=center;html=1;shape=mxgraph.mockup.forms.anchor;fontSize=12;fontColor=#666666;align=left;resizeWidth=1;spacingLeft=0;" vertex="1" parent="LSE3tJzLOPeWC8bU5sy8-49">
          <mxGeometry width="100" height="20" relative="1" as="geometry">
            <mxPoint x="10" y="40" as="offset" />
          </mxGeometry>
        </mxCell>
        <mxCell id="LSE3tJzLOPeWC8bU5sy8-53" value="johndoe" style="strokeWidth=1;shadow=0;dashed=0;align=center;html=1;shape=mxgraph.mockup.forms.rrect;rSize=0;strokeColor=#999999;fontColor=#666666;align=left;spacingLeft=5;resizeWidth=1;" vertex="1" parent="LSE3tJzLOPeWC8bU5sy8-49">
          <mxGeometry width="150" height="25" relative="1" as="geometry">
            <mxPoint x="10" y="60" as="offset" />
          </mxGeometry>
        </mxCell>
        <mxCell id="LSE3tJzLOPeWC8bU5sy8-54" value="Confirm Password:" style="strokeWidth=1;shadow=0;dashed=0;align=center;html=1;shape=mxgraph.mockup.forms.anchor;fontSize=12;fontColor=#666666;align=left;resizeWidth=1;spacingLeft=0;" vertex="1" parent="LSE3tJzLOPeWC8bU5sy8-49">
          <mxGeometry width="100" height="20" relative="1" as="geometry">
            <mxPoint x="9" y="136" as="offset" />
          </mxGeometry>
        </mxCell>
        <mxCell id="LSE3tJzLOPeWC8bU5sy8-55" value="********" style="strokeWidth=1;shadow=0;dashed=0;align=center;html=1;shape=mxgraph.mockup.forms.rrect;rSize=0;strokeColor=#999999;fontColor=#666666;align=left;spacingLeft=5;resizeWidth=1;" vertex="1" parent="LSE3tJzLOPeWC8bU5sy8-49">
          <mxGeometry width="150" height="25" relative="1" as="geometry">
            <mxPoint x="10" y="161" as="offset" />
          </mxGeometry>
        </mxCell>
        <mxCell id="LSE3tJzLOPeWC8bU5sy8-56" value="REGISTER" style="strokeWidth=1;shadow=0;dashed=0;align=center;html=1;shape=mxgraph.mockup.forms.rrect;rSize=5;strokeColor=none;fontColor=#ffffff;fillColor=#66bbff;fontSize=16;fontStyle=1;" vertex="1" parent="LSE3tJzLOPeWC8bU5sy8-49">
          <mxGeometry y="1" width="100" height="30" relative="1" as="geometry">
            <mxPoint x="20" y="-133" as="offset" />
          </mxGeometry>
        </mxCell>
        <mxCell id="LSE3tJzLOPeWC8bU5sy8-58" value="" style="shape=line;strokeColor=#ddeeff;strokeWidth=2;html=1;resizeWidth=1;" vertex="1" parent="LSE3tJzLOPeWC8bU5sy8-49">
          <mxGeometry y="1" width="180" height="10" relative="1" as="geometry">
            <mxPoint x="10" y="-90" as="offset" />
          </mxGeometry>
        </mxCell>
        <mxCell id="LSE3tJzLOPeWC8bU5sy8-59" value="Already have an account?" style="strokeWidth=1;shadow=0;dashed=0;align=center;html=1;shape=mxgraph.mockup.forms.anchor;fontSize=12;fontColor=#666666;align=left;spacingLeft=0;resizeWidth=1;" vertex="1" parent="LSE3tJzLOPeWC8bU5sy8-49">
          <mxGeometry y="1" width="150" height="20" relative="1" as="geometry">
            <mxPoint x="10" y="-70" as="offset" />
          </mxGeometry>
        </mxCell>
        <mxCell id="LSE3tJzLOPeWC8bU5sy8-60" value="LOGIN" style="strokeWidth=1;shadow=0;dashed=0;align=center;html=1;shape=mxgraph.mockup.forms.rrect;rSize=5;strokeColor=none;fontColor=#ffffff;fillColor=#66bbff;fontSize=16;fontStyle=1;" vertex="1" parent="LSE3tJzLOPeWC8bU5sy8-49">
          <mxGeometry y="1" width="80" height="30" relative="1" as="geometry">
            <mxPoint x="20" y="-50" as="offset" />
          </mxGeometry>
        </mxCell>
        <mxCell id="LSE3tJzLOPeWC8bU5sy8-62" value="Password:" style="strokeWidth=1;shadow=0;dashed=0;align=center;html=1;shape=mxgraph.mockup.forms.anchor;fontSize=12;fontColor=#666666;align=left;resizeWidth=1;spacingLeft=0;" vertex="1" parent="1">
          <mxGeometry x="436.23" y="-339" width="100" height="20" as="geometry" />
        </mxCell>
        <mxCell id="LSE3tJzLOPeWC8bU5sy8-63" value="********" style="strokeWidth=1;shadow=0;dashed=0;align=center;html=1;shape=mxgraph.mockup.forms.rrect;rSize=0;strokeColor=#999999;fontColor=#666666;align=left;spacingLeft=5;resizeWidth=1;" vertex="1" parent="1">
          <mxGeometry x="436.23" y="-320" width="150" height="25" as="geometry" />
        </mxCell>
        <mxCell id="LSE3tJzLOPeWC8bU5sy8-65" value="" style="verticalLabelPosition=bottom;verticalAlign=top;html=1;shadow=0;dashed=0;strokeWidth=1;shape=mxgraph.android.phone2;strokeColor=#82b366;fillColor=#d5e8d4;" vertex="1" parent="1">
          <mxGeometry x="15" y="60" width="310" height="480" as="geometry" />
        </mxCell>
        <mxCell id="LSE3tJzLOPeWC8bU5sy8-67" value="" style="verticalLabelPosition=bottom;verticalAlign=top;html=1;shadow=0;dashed=0;strokeWidth=1;shape=mxgraph.android.phone2;strokeColor=#82b366;fillColor=#d5e8d4;" vertex="1" parent="1">
          <mxGeometry x="380" y="65" width="310" height="480" as="geometry" />
        </mxCell>
        <mxCell id="LSE3tJzLOPeWC8bU5sy8-68" value="" style="verticalLabelPosition=bottom;verticalAlign=top;html=1;shadow=0;dashed=0;strokeWidth=1;shape=mxgraph.android.phone2;strokeColor=#82b366;fillColor=#d5e8d4;" vertex="1" parent="1">
          <mxGeometry x="20" y="560" width="310" height="480" as="geometry" />
        </mxCell>
        <mxCell id="LSE3tJzLOPeWC8bU5sy8-69" value="" style="verticalLabelPosition=bottom;verticalAlign=top;html=1;shadow=0;dashed=0;strokeWidth=1;shape=mxgraph.android.phone2;strokeColor=#82b366;fillColor=#d5e8d4;" vertex="1" parent="1">
          <mxGeometry x="0.22999999999999687" y="1100" width="310" height="480" as="geometry" />
        </mxCell>
        <mxCell id="LSE3tJzLOPeWC8bU5sy8-70" value="" style="verticalLabelPosition=bottom;verticalAlign=top;html=1;shadow=0;dashed=0;strokeWidth=1;shape=mxgraph.android.phone2;strokeColor=#82b366;fillColor=#d5e8d4;" vertex="1" parent="1">
          <mxGeometry x="372.23" y="1100" width="310" height="480" as="geometry" />
        </mxCell>
        <mxCell id="LSE3tJzLOPeWC8bU5sy8-71" value="" style="verticalLabelPosition=bottom;verticalAlign=top;html=1;shadow=0;dashed=0;strokeWidth=1;shape=mxgraph.android.phone2;strokeColor=#82b366;fillColor=#d5e8d4;" vertex="1" parent="1">
          <mxGeometry x="15.23" y="-1010" width="310" height="480" as="geometry" />
        </mxCell>
        <mxCell id="LSE3tJzLOPeWC8bU5sy8-72" value="" style="strokeWidth=2;html=1;shape=mxgraph.flowchart.delay;whiteSpace=wrap;direction=north;fillColor=#007FFF;" vertex="1" parent="1">
          <mxGeometry x="80.23" y="-889" width="180" height="306" as="geometry" />
        </mxCell>
        <mxCell id="LSE3tJzLOPeWC8bU5sy8-75" value="&lt;b&gt;&lt;font style=&quot;font-size: 16px;&quot;&gt;&amp;nbsp; &amp;nbsp; &amp;nbsp;FLYTIX&lt;/font&gt;&lt;/b&gt;" style="strokeWidth=1;shadow=0;dashed=0;align=center;html=1;shape=mxgraph.mockup.forms.rrect;rSize=0;strokeColor=#006EAF;fontColor=#ffffff;align=left;spacingLeft=5;resizeWidth=1;fillColor=#1ba1e2;" vertex="1" parent="1">
          <mxGeometry x="100.23" y="-961" width="120" height="25" as="geometry" />
        </mxCell>
        <mxCell id="LSE3tJzLOPeWC8bU5sy8-77" value="" style="shape=mxgraph.signs.transportation.airplane_7;html=1;pointerEvents=1;fillColor=#FFFFFF;strokeColor=none;verticalLabelPosition=bottom;verticalAlign=top;align=center;direction=east;" vertex="1" parent="1">
          <mxGeometry x="100.23" y="-853" width="130" height="59.5" as="geometry" />
        </mxCell>
        <mxCell id="LSE3tJzLOPeWC8bU5sy8-78" value="&lt;div style=&quot;&quot;&gt;&lt;font size=&quot;1&quot; color=&quot;#ffffff&quot;&gt;&lt;b style=&quot;font-size: 15px;&quot;&gt;fly anywhere easily without obstacles&lt;/b&gt;&lt;/font&gt;&lt;/div&gt;" style="whiteSpace=wrap;html=1;shape=mxgraph.basic.cloud_rect;fillColor=#007FFF;strokeColor=#007FFF;align=center;" vertex="1" parent="1">
          <mxGeometry x="100.23" y="-773" width="140" height="80" as="geometry" />
        </mxCell>
        <mxCell id="LSE3tJzLOPeWC8bU5sy8-84" value="&lt;b&gt;&lt;font style=&quot;font-size: 16px;&quot;&gt;&amp;nbsp; &amp;nbsp; &amp;nbsp; &amp;nbsp; TIME TO FLY&lt;/font&gt;&lt;/b&gt;" style="strokeWidth=1;shadow=0;dashed=0;align=center;html=1;shape=mxgraph.mockup.forms.rrect;rSize=0;strokeColor=#006EAF;fontColor=#ffffff;align=left;spacingLeft=5;resizeWidth=1;fillColor=#3399FF;" vertex="1" parent="1">
          <mxGeometry x="70.23" y="-923" width="190" height="25" as="geometry" />
        </mxCell>
        <mxCell id="LSE3tJzLOPeWC8bU5sy8-86" value="&lt;font style=&quot;font-size: 12px;&quot; color=&quot;#007fff&quot;&gt;Get Started&lt;/font&gt;" style="strokeWidth=1;shadow=0;dashed=0;align=center;html=1;shape=mxgraph.mockup.forms.rrect;rSize=5;strokeColor=none;fontColor=#ffffff;fillColor=#FFFFFF;fontSize=16;fontStyle=1;" vertex="1" parent="1">
          <mxGeometry x="110.23" y="-678" width="120" height="30" as="geometry" />
        </mxCell>
        <mxCell id="LSE3tJzLOPeWC8bU5sy8-87" value="&lt;span style=&quot;font-size: 10px;&quot;&gt;I Have an Account&lt;/span&gt;" style="strokeWidth=1;shadow=0;align=center;html=1;shape=mxgraph.mockup.forms.rrect;rSize=5;strokeColor=#FFFFFF;fontColor=#ffffff;fillColor=#007FFF;fontSize=16;fontStyle=1;labelBorderColor=none;" vertex="1" parent="1">
          <mxGeometry x="110.23" y="-632" width="120" height="30" as="geometry" />
        </mxCell>
        <mxCell id="LSE3tJzLOPeWC8bU5sy8-89" value="" style="strokeWidth=2;html=1;shape=mxgraph.flowchart.delay;whiteSpace=wrap;direction=north;fillColor=#007FFF;rotation=-180;" vertex="1" parent="1">
          <mxGeometry x="31" y="104" width="280" height="76" as="geometry" />
        </mxCell>
        <mxCell id="LSE3tJzLOPeWC8bU5sy8-91" value="" style="shape=actor;whiteSpace=wrap;html=1;" vertex="1" parent="1">
          <mxGeometry x="40" y="110" width="20" height="35" as="geometry" />
        </mxCell>
        <mxCell id="LSE3tJzLOPeWC8bU5sy8-93" value="" style="html=1;verticalLabelPosition=bottom;align=center;labelBackgroundColor=#ffffff;verticalAlign=top;strokeWidth=2;strokeColor=#0080F0;shadow=0;dashed=0;shape=mxgraph.ios7.icons.bell;" vertex="1" parent="1">
          <mxGeometry x="280" y="115" width="24" height="30.1" as="geometry" />
        </mxCell>
        <mxCell id="LSE3tJzLOPeWC8bU5sy8-94" value="&lt;font color=&quot;#ffffff&quot;&gt;&lt;b&gt;lets explore the world with us !&lt;/b&gt;&lt;/font&gt;" style="strokeWidth=1;shadow=0;dashed=0;align=center;html=1;shape=mxgraph.mockup.text.textBox;fontColor=#666666;align=left;fontSize=17;spacingLeft=4;spacingTop=-3;whiteSpace=wrap;strokeColor=none;mainText=;fillColor=none;" vertex="1" parent="1">
          <mxGeometry x="85" y="132" width="175" height="40" as="geometry" />
        </mxCell>
        <mxCell id="LSE3tJzLOPeWC8bU5sy8-96" value="" style="rounded=1;whiteSpace=wrap;html=1;rotation=90;fillColor=#FFFFFF;strokeColor=#007FFF;" vertex="1" parent="1">
          <mxGeometry x="21.9" y="212.91" width="304.19" height="251.33" as="geometry" />
        </mxCell>
        <mxCell id="LSE3tJzLOPeWC8bU5sy8-95" value="From:" style="text;html=1;align=center;verticalAlign=middle;resizable=0;points=[];autosize=1;strokeColor=none;fillColor=none;" vertex="1" parent="1">
          <mxGeometry x="84" y="191" width="50" height="30" as="geometry" />
        </mxCell>
        <mxCell id="LSE3tJzLOPeWC8bU5sy8-97" value="New York, USA" style="rounded=1;whiteSpace=wrap;html=1;fillColor=#E6E6E6;" vertex="1" parent="1">
          <mxGeometry x="94" y="218" width="150" height="20" as="geometry" />
        </mxCell>
        <mxCell id="LSE3tJzLOPeWC8bU5sy8-99" value="" style="ellipse;whiteSpace=wrap;html=1;aspect=fixed;" vertex="1" parent="1">
          <mxGeometry x="103" y="220" width="19" height="19" as="geometry" />
        </mxCell>
        <mxCell id="LSE3tJzLOPeWC8bU5sy8-100" value="" style="shape=mxgraph.signs.transportation.airplane_1;html=1;pointerEvents=1;fillColor=#000000;strokeColor=none;verticalLabelPosition=bottom;verticalAlign=top;align=center;" vertex="1" parent="1">
          <mxGeometry x="106" y="223" width="14" height="11" as="geometry" />
        </mxCell>
        <mxCell id="LSE3tJzLOPeWC8bU5sy8-102" value="To:" style="text;html=1;align=center;verticalAlign=middle;resizable=0;points=[];autosize=1;strokeColor=none;fillColor=none;" vertex="1" parent="1">
          <mxGeometry x="79" y="242" width="40" height="30" as="geometry" />
        </mxCell>
        <mxCell id="LSE3tJzLOPeWC8bU5sy8-103" value="Los Angeles, USA" style="rounded=1;whiteSpace=wrap;html=1;fillColor=#E6E6E6;" vertex="1" parent="1">
          <mxGeometry x="94" y="267" width="150" height="20" as="geometry" />
        </mxCell>
        <mxCell id="LSE3tJzLOPeWC8bU5sy8-106" value="" style="ellipse;whiteSpace=wrap;html=1;verticalAlign=top;fillColor=#FFFFFF;strokeColor=none;pointerEvents=1;" vertex="1" parent="1">
          <mxGeometry x="102" y="268.5" width="17" height="16.5" as="geometry" />
        </mxCell>
        <mxCell id="LSE3tJzLOPeWC8bU5sy8-108" value="" style="shape=mxgraph.signs.transportation.airplane_2;html=1;pointerEvents=1;fillColor=#000000;strokeColor=none;verticalLabelPosition=bottom;verticalAlign=top;align=center;" vertex="1" parent="1">
          <mxGeometry x="106" y="267" width="10" height="17" as="geometry" />
        </mxCell>
        <mxCell id="LSE3tJzLOPeWC8bU5sy8-109" value="Passengers:" style="text;html=1;align=center;verticalAlign=middle;resizable=0;points=[];autosize=1;strokeColor=none;fillColor=none;" vertex="1" parent="1">
          <mxGeometry x="79" y="291" width="90" height="30" as="geometry" />
        </mxCell>
        <mxCell id="LSE3tJzLOPeWC8bU5sy8-110" value="" style="rounded=1;whiteSpace=wrap;html=1;fillColor=#E6E6E6;" vertex="1" parent="1">
          <mxGeometry x="97.5" y="319" width="82.5" height="20" as="geometry" />
        </mxCell>
        <mxCell id="LSE3tJzLOPeWC8bU5sy8-111" value="" style="rounded=1;whiteSpace=wrap;html=1;fillColor=#E6E6E6;" vertex="1" parent="1">
          <mxGeometry x="200" y="317" width="80" height="20" as="geometry" />
        </mxCell>
        <mxCell id="LSE3tJzLOPeWC8bU5sy8-112" value="Flight Date:" style="text;html=1;align=center;verticalAlign=middle;resizable=0;points=[];autosize=1;strokeColor=none;fillColor=none;" vertex="1" parent="1">
          <mxGeometry x="84" y="346" width="80" height="30" as="geometry" />
        </mxCell>
        <mxCell id="LSE3tJzLOPeWC8bU5sy8-113" value="Class:" style="text;html=1;align=center;verticalAlign=middle;resizable=0;points=[];autosize=1;strokeColor=none;fillColor=none;" vertex="1" parent="1">
          <mxGeometry x="81" y="401" width="60" height="30" as="geometry" />
        </mxCell>
        <mxCell id="LSE3tJzLOPeWC8bU5sy8-115" value="&lt;font face=&quot;Helvetica&quot; color=&quot;#000000&quot;&gt;Select date&lt;/font&gt;" style="rounded=1;arcSize=9;fillColor=#E6E6E6;align=left;spacingLeft=5;strokeColor=#000000;html=1;strokeWidth=2;fontColor=#596780;fontSize=12;hachureGap=4;pointerEvents=0;fontFamily=Architects Daughter;fontSource=https%3A%2F%2Ffonts.googleapis.com%2Fcss%3Ffamily%3DArchitects%2BDaughter;" vertex="1" parent="1">
          <mxGeometry x="102" y="377" width="150" height="23" as="geometry" />
        </mxCell>
        <mxCell id="LSE3tJzLOPeWC8bU5sy8-116" value="" style="shape=mxgraph.gmdl.calendar;fillColor=#5A6881;strokeColor=none;sketch=0;hachureGap=4;pointerEvents=0;fontFamily=Architects Daughter;fontSource=https%3A%2F%2Ffonts.googleapis.com%2Fcss%3Ffamily%3DArchitects%2BDaughter;fontSize=20;" vertex="1" parent="LSE3tJzLOPeWC8bU5sy8-115">
          <mxGeometry x="1" y="0.5" width="18" height="18" relative="1" as="geometry">
            <mxPoint x="-29" y="-9" as="offset" />
          </mxGeometry>
        </mxCell>
        <mxCell id="LSE3tJzLOPeWC8bU5sy8-117" value="&lt;font style=&quot;font-size: 13px;&quot; color=&quot;#000000&quot;&gt;Business Class&lt;/font&gt;" style="html=1;shadow=0;dashed=0;shape=mxgraph.bootstrap.rrect;rSize=5;fillColor=#E6E6E6;strokeColor=#000000;align=left;spacing=15;fontSize=14;fontColor=#6C767D;" vertex="1" parent="1">
          <mxGeometry x="97.5" y="426" width="142.5" height="20" as="geometry" />
        </mxCell>
        <mxCell id="LSE3tJzLOPeWC8bU5sy8-118" value="" style="shape=triangle;direction=south;fillColor=#343A40;strokeColor=none;perimeter=none;" vertex="1" parent="LSE3tJzLOPeWC8bU5sy8-117">
          <mxGeometry x="1" y="0.5" width="7" height="3" relative="1" as="geometry">
            <mxPoint x="-17" y="1" as="offset" />
          </mxGeometry>
        </mxCell>
        <mxCell id="LSE3tJzLOPeWC8bU5sy8-119" value="" style="shape=triangle;direction=north;fillColor=#343A40;strokeColor=none;perimeter=none;" vertex="1" parent="LSE3tJzLOPeWC8bU5sy8-117">
          <mxGeometry x="1" y="0.5" width="7" height="3" relative="1" as="geometry">
            <mxPoint x="-17" y="-4" as="offset" />
          </mxGeometry>
        </mxCell>
        <mxCell id="LSE3tJzLOPeWC8bU5sy8-120" value="" style="verticalLabelPosition=bottom;sketch=0;html=1;fillColor=#282828;strokeColor=none;verticalAlign=top;pointerEvents=1;align=center;shape=mxgraph.cisco_safe.people_places_things_icons.icon9;" vertex="1" parent="1">
          <mxGeometry x="104.5" y="321" width="10" height="16" as="geometry" />
        </mxCell>
        <mxCell id="LSE3tJzLOPeWC8bU5sy8-121" value="" style="verticalLabelPosition=bottom;sketch=0;html=1;fillColor=#282828;strokeColor=none;verticalAlign=top;pointerEvents=1;align=center;shape=mxgraph.cisco_safe.people_places_things_icons.icon9;" vertex="1" parent="1">
          <mxGeometry x="206.5" y="321" width="10" height="16" as="geometry" />
        </mxCell>
        <mxCell id="LSE3tJzLOPeWC8bU5sy8-125" value="&lt;font style=&quot;font-size: 9px;&quot; color=&quot;#000000&quot;&gt;1 Child&lt;/font&gt;" style="html=1;shadow=0;dashed=0;shape=mxgraph.bootstrap.rrect;rSize=5;fillColor=none;strokeColor=none;align=left;spacing=15;fontSize=14;fontColor=#6C767D;" vertex="1" parent="1">
          <mxGeometry x="210" y="317" width="68" height="20" as="geometry" />
        </mxCell>
        <mxCell id="LSE3tJzLOPeWC8bU5sy8-126" value="" style="shape=triangle;direction=south;fillColor=#343A40;strokeColor=none;perimeter=none;" vertex="1" parent="LSE3tJzLOPeWC8bU5sy8-125">
          <mxGeometry x="1" y="0.5" width="7" height="3" relative="1" as="geometry">
            <mxPoint x="-17" y="1" as="offset" />
          </mxGeometry>
        </mxCell>
        <mxCell id="LSE3tJzLOPeWC8bU5sy8-127" value="" style="shape=triangle;direction=north;fillColor=#343A40;strokeColor=none;perimeter=none;" vertex="1" parent="LSE3tJzLOPeWC8bU5sy8-125">
          <mxGeometry x="1" y="0.5" width="7" height="3" relative="1" as="geometry">
            <mxPoint x="-17" y="-4" as="offset" />
          </mxGeometry>
        </mxCell>
        <mxCell id="LSE3tJzLOPeWC8bU5sy8-128" value="&lt;font style=&quot;font-size: 9px;&quot; color=&quot;#000000&quot;&gt;2 Adults&lt;/font&gt;" style="html=1;shadow=0;dashed=0;shape=mxgraph.bootstrap.rrect;rSize=5;fillColor=none;strokeColor=none;align=left;spacing=15;fontSize=14;fontColor=#6C767D;" vertex="1" parent="1">
          <mxGeometry x="110" y="318" width="70" height="20" as="geometry" />
        </mxCell>
        <mxCell id="LSE3tJzLOPeWC8bU5sy8-129" value="" style="shape=triangle;direction=south;fillColor=#343A40;strokeColor=none;perimeter=none;" vertex="1" parent="LSE3tJzLOPeWC8bU5sy8-128">
          <mxGeometry x="1" y="0.5" width="7" height="3" relative="1" as="geometry">
            <mxPoint x="-17" y="1" as="offset" />
          </mxGeometry>
        </mxCell>
        <mxCell id="LSE3tJzLOPeWC8bU5sy8-130" value="" style="shape=triangle;direction=north;fillColor=#343A40;strokeColor=none;perimeter=none;" vertex="1" parent="LSE3tJzLOPeWC8bU5sy8-128">
          <mxGeometry x="1" y="0.5" width="7" height="3" relative="1" as="geometry">
            <mxPoint x="-17" y="-4" as="offset" />
          </mxGeometry>
        </mxCell>
        <mxCell id="LSE3tJzLOPeWC8bU5sy8-133" value="Search Flights" style="rounded=1;fillColor=#007FFF;strokeColor=none;html=1;whiteSpace=wrap;fontColor=#ffffff;align=center;verticalAlign=middle;fontStyle=0;fontSize=12;sketch=0;" vertex="1" parent="1">
          <mxGeometry x="80" y="455" width="190" height="30" as="geometry" />
        </mxCell>
        <mxCell id="LSE3tJzLOPeWC8bU5sy8-134" value="" style="strokeWidth=2;html=1;shape=mxgraph.flowchart.delay;whiteSpace=wrap;direction=north;fillColor=#007FFF;rotation=-180;" vertex="1" parent="1">
          <mxGeometry x="395" y="104" width="285" height="76" as="geometry" />
        </mxCell>
        <mxCell id="LSE3tJzLOPeWC8bU5sy8-136" value="Los Angeles" style="text;html=1;align=center;verticalAlign=middle;whiteSpace=wrap;rounded=0;fontColor=#FFFFFF;" vertex="1" parent="1">
          <mxGeometry x="600" y="118" width="70" height="30" as="geometry" />
        </mxCell>
        <mxCell id="LSE3tJzLOPeWC8bU5sy8-137" value="" style="shape=mxgraph.signs.transportation.airplane_1;html=1;pointerEvents=1;fillColor=#000000;strokeColor=none;verticalLabelPosition=bottom;verticalAlign=top;align=center;" vertex="1" parent="1">
          <mxGeometry x="481" y="113" width="99" height="35" as="geometry" />
        </mxCell>
        <mxCell id="LSE3tJzLOPeWC8bU5sy8-138" value="New York" style="text;html=1;align=center;verticalAlign=middle;whiteSpace=wrap;rounded=0;fontColor=#FFFFFF;" vertex="1" parent="1">
          <mxGeometry x="410" y="120" width="60" height="30" as="geometry" />
        </mxCell>
        <mxCell id="LSE3tJzLOPeWC8bU5sy8-140" value="Travel Date:30 th oct 2024" style="text;html=1;align=center;verticalAlign=middle;whiteSpace=wrap;rounded=0;fontColor=#FFFFFF;" vertex="1" parent="1">
          <mxGeometry x="490" y="150" width="100" height="30" as="geometry" />
        </mxCell>
        <mxCell id="LSE3tJzLOPeWC8bU5sy8-143" value="" style="rounded=1;whiteSpace=wrap;html=1;fillColor=#FFFFFF;" vertex="1" parent="1">
          <mxGeometry x="400" y="200" width="270" height="50" as="geometry" />
        </mxCell>
        <mxCell id="LSE3tJzLOPeWC8bU5sy8-147" value="" style="shape=mxgraph.signs.transportation.airplane_1;html=1;pointerEvents=1;fillColor=#000000;strokeColor=none;verticalLabelPosition=bottom;verticalAlign=top;align=center;" vertex="1" parent="1">
          <mxGeometry x="464" y="204" width="26" height="16" as="geometry" />
        </mxCell>
        <mxCell id="LSE3tJzLOPeWC8bU5sy8-148" value="New York" style="text;html=1;align=center;verticalAlign=middle;whiteSpace=wrap;rounded=0;" vertex="1" parent="1">
          <mxGeometry x="405" y="200" width="60" height="30" as="geometry" />
        </mxCell>
        <mxCell id="LSE3tJzLOPeWC8bU5sy8-149" value="Los angeles&lt;div&gt;&lt;br&gt;&lt;/div&gt;" style="text;html=1;align=center;verticalAlign=middle;whiteSpace=wrap;rounded=0;" vertex="1" parent="1">
          <mxGeometry x="495" y="202" width="70" height="38" as="geometry" />
        </mxCell>
        <mxCell id="LSE3tJzLOPeWC8bU5sy8-151" value="10 seats" style="text;html=1;align=center;verticalAlign=middle;whiteSpace=wrap;rounded=0;" vertex="1" parent="1">
          <mxGeometry x="612.5" y="200" width="60" height="30" as="geometry" />
        </mxCell>
        <mxCell id="LSE3tJzLOPeWC8bU5sy8-153" value="departure:09.00AM" style="text;html=1;align=center;verticalAlign=middle;whiteSpace=wrap;rounded=0;" vertex="1" parent="1">
          <mxGeometry x="425" y="223" width="60" height="30" as="geometry" />
        </mxCell>
        <mxCell id="LSE3tJzLOPeWC8bU5sy8-154" value="$ 500" style="text;html=1;align=center;verticalAlign=middle;whiteSpace=wrap;rounded=0;" vertex="1" parent="1">
          <mxGeometry x="612.5" y="223" width="70" height="38" as="geometry" />
        </mxCell>
        <mxCell id="LSE3tJzLOPeWC8bU5sy8-156" value="" style="line;strokeWidth=2;html=1;" vertex="1" parent="1">
          <mxGeometry x="400" y="224" width="270" height="10" as="geometry" />
        </mxCell>
        <mxCell id="LSE3tJzLOPeWC8bU5sy8-163" value="" style="rounded=1;whiteSpace=wrap;html=1;fillColor=#FFFFFF;" vertex="1" parent="1">
          <mxGeometry x="401" y="265" width="270" height="50" as="geometry" />
        </mxCell>
        <mxCell id="LSE3tJzLOPeWC8bU5sy8-164" value="" style="shape=mxgraph.signs.transportation.airplane_1;html=1;pointerEvents=1;fillColor=#000000;strokeColor=none;verticalLabelPosition=bottom;verticalAlign=top;align=center;" vertex="1" parent="1">
          <mxGeometry x="465" y="269" width="26" height="16" as="geometry" />
        </mxCell>
        <mxCell id="LSE3tJzLOPeWC8bU5sy8-165" value="New York" style="text;html=1;align=center;verticalAlign=middle;whiteSpace=wrap;rounded=0;" vertex="1" parent="1">
          <mxGeometry x="406" y="265" width="60" height="30" as="geometry" />
        </mxCell>
        <mxCell id="LSE3tJzLOPeWC8bU5sy8-166" value="Los angeles&lt;div&gt;&lt;br&gt;&lt;/div&gt;" style="text;html=1;align=center;verticalAlign=middle;whiteSpace=wrap;rounded=0;" vertex="1" parent="1">
          <mxGeometry x="496" y="267" width="70" height="38" as="geometry" />
        </mxCell>
        <mxCell id="LSE3tJzLOPeWC8bU5sy8-167" value="20 seats" style="text;html=1;align=center;verticalAlign=middle;whiteSpace=wrap;rounded=0;" vertex="1" parent="1">
          <mxGeometry x="613.5" y="265" width="60" height="30" as="geometry" />
        </mxCell>
        <mxCell id="LSE3tJzLOPeWC8bU5sy8-168" value="departure:08.00AM" style="text;html=1;align=center;verticalAlign=middle;whiteSpace=wrap;rounded=0;" vertex="1" parent="1">
          <mxGeometry x="426" y="288" width="60" height="30" as="geometry" />
        </mxCell>
        <mxCell id="LSE3tJzLOPeWC8bU5sy8-169" value="" style="line;strokeWidth=2;html=1;" vertex="1" parent="1">
          <mxGeometry x="401" y="289" width="270" height="10" as="geometry" />
        </mxCell>
        <mxCell id="LSE3tJzLOPeWC8bU5sy8-170" value="" style="rounded=1;whiteSpace=wrap;html=1;fillColor=#FFFFFF;" vertex="1" parent="1">
          <mxGeometry x="400" y="328" width="270" height="50" as="geometry" />
        </mxCell>
        <mxCell id="LSE3tJzLOPeWC8bU5sy8-171" value="" style="shape=mxgraph.signs.transportation.airplane_1;html=1;pointerEvents=1;fillColor=#000000;strokeColor=none;verticalLabelPosition=bottom;verticalAlign=top;align=center;" vertex="1" parent="1">
          <mxGeometry x="464" y="331" width="26" height="16" as="geometry" />
        </mxCell>
        <mxCell id="LSE3tJzLOPeWC8bU5sy8-172" value="New York" style="text;html=1;align=center;verticalAlign=middle;whiteSpace=wrap;rounded=0;" vertex="1" parent="1">
          <mxGeometry x="405" y="327" width="60" height="30" as="geometry" />
        </mxCell>
        <mxCell id="LSE3tJzLOPeWC8bU5sy8-173" value="Los angeles&lt;div&gt;&lt;br&gt;&lt;/div&gt;" style="text;html=1;align=center;verticalAlign=middle;whiteSpace=wrap;rounded=0;" vertex="1" parent="1">
          <mxGeometry x="495" y="329" width="70" height="38" as="geometry" />
        </mxCell>
        <mxCell id="LSE3tJzLOPeWC8bU5sy8-174" value="21 seats" style="text;html=1;align=center;verticalAlign=middle;whiteSpace=wrap;rounded=0;" vertex="1" parent="1">
          <mxGeometry x="612.5" y="327" width="60" height="30" as="geometry" />
        </mxCell>
        <mxCell id="LSE3tJzLOPeWC8bU5sy8-175" value="departure:08.30AM" style="text;html=1;align=center;verticalAlign=middle;whiteSpace=wrap;rounded=0;" vertex="1" parent="1">
          <mxGeometry x="425" y="350" width="60" height="30" as="geometry" />
        </mxCell>
        <mxCell id="LSE3tJzLOPeWC8bU5sy8-176" value="" style="line;strokeWidth=2;html=1;" vertex="1" parent="1">
          <mxGeometry x="400" y="351" width="270" height="10" as="geometry" />
        </mxCell>
        <mxCell id="LSE3tJzLOPeWC8bU5sy8-177" value="" style="rounded=1;whiteSpace=wrap;html=1;fillColor=#FFFFFF;" vertex="1" parent="1">
          <mxGeometry x="401" y="391" width="270" height="50" as="geometry" />
        </mxCell>
        <mxCell id="LSE3tJzLOPeWC8bU5sy8-178" value="" style="shape=mxgraph.signs.transportation.airplane_1;html=1;pointerEvents=1;fillColor=#000000;strokeColor=none;verticalLabelPosition=bottom;verticalAlign=top;align=center;" vertex="1" parent="1">
          <mxGeometry x="465" y="395" width="26" height="16" as="geometry" />
        </mxCell>
        <mxCell id="LSE3tJzLOPeWC8bU5sy8-179" value="New York" style="text;html=1;align=center;verticalAlign=middle;whiteSpace=wrap;rounded=0;" vertex="1" parent="1">
          <mxGeometry x="406" y="391" width="60" height="30" as="geometry" />
        </mxCell>
        <mxCell id="LSE3tJzLOPeWC8bU5sy8-180" value="Los angeles&lt;div&gt;&lt;br&gt;&lt;/div&gt;" style="text;html=1;align=center;verticalAlign=middle;whiteSpace=wrap;rounded=0;" vertex="1" parent="1">
          <mxGeometry x="496" y="393" width="70" height="38" as="geometry" />
        </mxCell>
        <mxCell id="LSE3tJzLOPeWC8bU5sy8-181" value="28 seats" style="text;html=1;align=center;verticalAlign=middle;whiteSpace=wrap;rounded=0;" vertex="1" parent="1">
          <mxGeometry x="613.5" y="391" width="60" height="30" as="geometry" />
        </mxCell>
        <mxCell id="LSE3tJzLOPeWC8bU5sy8-182" value="departure:10.00AM" style="text;html=1;align=center;verticalAlign=middle;whiteSpace=wrap;rounded=0;" vertex="1" parent="1">
          <mxGeometry x="426" y="414" width="60" height="30" as="geometry" />
        </mxCell>
        <mxCell id="LSE3tJzLOPeWC8bU5sy8-183" value="" style="line;strokeWidth=2;html=1;" vertex="1" parent="1">
          <mxGeometry x="401" y="415" width="270" height="10" as="geometry" />
        </mxCell>
        <mxCell id="LSE3tJzLOPeWC8bU5sy8-184" value="$ 600" style="text;html=1;align=center;verticalAlign=middle;whiteSpace=wrap;rounded=0;" vertex="1" parent="1">
          <mxGeometry x="620" y="291" width="60" height="30" as="geometry" />
        </mxCell>
        <mxCell id="LSE3tJzLOPeWC8bU5sy8-185" value="$ 550" style="text;html=1;align=center;verticalAlign=middle;whiteSpace=wrap;rounded=0;" vertex="1" parent="1">
          <mxGeometry x="612.5" y="350" width="60" height="30" as="geometry" />
        </mxCell>
        <mxCell id="LSE3tJzLOPeWC8bU5sy8-188" value="$ 700" style="text;html=1;align=center;verticalAlign=middle;whiteSpace=wrap;rounded=0;" vertex="1" parent="1">
          <mxGeometry x="613.5" y="416" width="60" height="30" as="geometry" />
        </mxCell>
        <mxCell id="LSE3tJzLOPeWC8bU5sy8-189" value="7" style="strokeWidth=2;html=1;shape=mxgraph.flowchart.terminator;whiteSpace=wrap;" vertex="1" parent="1">
          <mxGeometry x="428.21000000000004" y="850" width="20" height="20" as="geometry" />
        </mxCell>
        <mxCell id="LSE3tJzLOPeWC8bU5sy8-193" value="" style="shape=dataStorage;whiteSpace=wrap;html=1;fixedSize=1;rotation=90;" vertex="1" parent="1">
          <mxGeometry x="479.96000000000004" y="650.75" width="45.5" height="110" as="geometry" />
        </mxCell>
        <mxCell id="LSE3tJzLOPeWC8bU5sy8-197" value="" style="strokeWidth=2;html=1;shape=mxgraph.flowchart.terminator;whiteSpace=wrap;" vertex="1" parent="1">
          <mxGeometry x="489.21000000000004" y="690" width="20" height="13" as="geometry" />
        </mxCell>
        <mxCell id="LSE3tJzLOPeWC8bU5sy8-198" value="p" style="strokeWidth=2;html=1;shape=mxgraph.flowchart.terminator;whiteSpace=wrap;rotation=-25;" vertex="1" parent="1">
          <mxGeometry x="454.21000000000004" y="698" width="20" height="13" as="geometry" />
        </mxCell>
        <mxCell id="LSE3tJzLOPeWC8bU5sy8-199" value="cp" style="strokeWidth=2;html=1;shape=mxgraph.flowchart.terminator;whiteSpace=wrap;rotation=30;" vertex="1" parent="1">
          <mxGeometry x="527.21" y="696" width="20" height="13" as="geometry" />
        </mxCell>
        <mxCell id="LSE3tJzLOPeWC8bU5sy8-202" value="4" style="strokeWidth=2;html=1;shape=mxgraph.flowchart.terminator;whiteSpace=wrap;fillColor=#ffcd28;gradientColor=#ffa500;strokeColor=#d79b00;" vertex="1" parent="1">
          <mxGeometry x="463.21000000000004" y="777" width="20" height="20" as="geometry" />
        </mxCell>
        <mxCell id="LSE3tJzLOPeWC8bU5sy8-203" value="6" style="strokeWidth=2;html=1;shape=mxgraph.flowchart.terminator;whiteSpace=wrap;" vertex="1" parent="1">
          <mxGeometry x="462.96000000000004" y="815" width="20" height="20" as="geometry" />
        </mxCell>
        <mxCell id="LSE3tJzLOPeWC8bU5sy8-204" value="8" style="strokeWidth=2;html=1;shape=mxgraph.flowchart.terminator;whiteSpace=wrap;" vertex="1" parent="1">
          <mxGeometry x="464.21000000000004" y="850" width="20" height="20" as="geometry" />
        </mxCell>
        <mxCell id="LSE3tJzLOPeWC8bU5sy8-205" value="10" style="strokeWidth=2;html=1;shape=mxgraph.flowchart.terminator;whiteSpace=wrap;fillColor=#60a917;fontColor=#ffffff;strokeColor=#2D7600;" vertex="1" parent="1">
          <mxGeometry x="464.21000000000004" y="881" width="20" height="20" as="geometry" />
        </mxCell>
        <mxCell id="LSE3tJzLOPeWC8bU5sy8-206" value="12" style="strokeWidth=2;html=1;shape=mxgraph.flowchart.terminator;whiteSpace=wrap;fillColor=#60a917;fontColor=#ffffff;strokeColor=#2D7600;" vertex="1" parent="1">
          <mxGeometry x="464.21000000000004" y="915" width="20" height="20" as="geometry" />
        </mxCell>
        <mxCell id="LSE3tJzLOPeWC8bU5sy8-207" value="14" style="strokeWidth=2;html=1;shape=mxgraph.flowchart.terminator;whiteSpace=wrap;fillColor=#60a917;fontColor=#ffffff;strokeColor=#2D7600;" vertex="1" parent="1">
          <mxGeometry x="463.21000000000004" y="947" width="20" height="20" as="geometry" />
        </mxCell>
        <mxCell id="LSE3tJzLOPeWC8bU5sy8-208" value="24" style="strokeWidth=2;html=1;shape=mxgraph.flowchart.terminator;whiteSpace=wrap;fillColor=#60a917;fontColor=#ffffff;strokeColor=#2D7600;" vertex="1" parent="1">
          <mxGeometry x="569.21" y="881" width="20" height="20" as="geometry" />
        </mxCell>
        <mxCell id="LSE3tJzLOPeWC8bU5sy8-209" value="11" style="strokeWidth=2;html=1;shape=mxgraph.flowchart.terminator;whiteSpace=wrap;direction=south;fillColor=#60a917;fontColor=#ffffff;strokeColor=#2D7600;" vertex="1" parent="1">
          <mxGeometry x="428.21000000000004" y="912" width="20" height="20" as="geometry" />
        </mxCell>
        <mxCell id="LSE3tJzLOPeWC8bU5sy8-210" value="27" style="strokeWidth=2;html=1;shape=mxgraph.flowchart.terminator;whiteSpace=wrap;fillColor=#60a917;fontColor=#ffffff;strokeColor=#2D7600;" vertex="1" parent="1">
          <mxGeometry x="540.21" y="944" width="20" height="20" as="geometry" />
        </mxCell>
        <mxCell id="LSE3tJzLOPeWC8bU5sy8-217" value="21" style="strokeWidth=2;html=1;shape=mxgraph.flowchart.terminator;whiteSpace=wrap;fillColor=#60a917;fontColor=#ffffff;strokeColor=#2D7600;" vertex="1" parent="1">
          <mxGeometry x="540.21" y="851" width="20" height="20" as="geometry" />
        </mxCell>
        <mxCell id="LSE3tJzLOPeWC8bU5sy8-218" value="22" style="strokeWidth=2;html=1;shape=mxgraph.flowchart.terminator;whiteSpace=wrap;fillColor=#60a917;fontColor=#ffffff;strokeColor=#2D7600;" vertex="1" parent="1">
          <mxGeometry x="569.21" y="852" width="20" height="20" as="geometry" />
        </mxCell>
        <mxCell id="LSE3tJzLOPeWC8bU5sy8-219" value="19" style="strokeWidth=2;html=1;shape=mxgraph.flowchart.terminator;whiteSpace=wrap;fillColor=#60a917;fontColor=#ffffff;strokeColor=#2D7600;" vertex="1" parent="1">
          <mxGeometry x="538.21" y="815" width="20" height="20" as="geometry" />
        </mxCell>
        <mxCell id="LSE3tJzLOPeWC8bU5sy8-220" value="20" style="strokeWidth=2;html=1;shape=mxgraph.flowchart.terminator;whiteSpace=wrap;fillColor=#60a917;fontColor=#ffffff;strokeColor=#2D7600;" vertex="1" parent="1">
          <mxGeometry x="569.21" y="814" width="20" height="20" as="geometry" />
        </mxCell>
        <mxCell id="LSE3tJzLOPeWC8bU5sy8-221" value="16" style="strokeWidth=2;html=1;shape=mxgraph.flowchart.terminator;whiteSpace=wrap;" vertex="1" parent="1">
          <mxGeometry x="570.21" y="744" width="20" height="20" as="geometry" />
        </mxCell>
        <mxCell id="LSE3tJzLOPeWC8bU5sy8-222" value="18" style="strokeWidth=2;html=1;shape=mxgraph.flowchart.terminator;whiteSpace=wrap;fillColor=#60a917;fontColor=#ffffff;strokeColor=#2D7600;" vertex="1" parent="1">
          <mxGeometry x="569.21" y="777" width="20" height="20" as="geometry" />
        </mxCell>
        <mxCell id="LSE3tJzLOPeWC8bU5sy8-223" value="15" style="strokeWidth=2;html=1;shape=mxgraph.flowchart.terminator;whiteSpace=wrap;" vertex="1" parent="1">
          <mxGeometry x="540.21" y="744" width="20" height="20" as="geometry" />
        </mxCell>
        <mxCell id="LSE3tJzLOPeWC8bU5sy8-224" value="17" style="strokeWidth=2;html=1;shape=mxgraph.flowchart.terminator;whiteSpace=wrap;fillColor=#60a917;fontColor=#ffffff;strokeColor=#2D7600;" vertex="1" parent="1">
          <mxGeometry x="540.21" y="777" width="20" height="20" as="geometry" />
        </mxCell>
        <mxCell id="LSE3tJzLOPeWC8bU5sy8-235" value="" style="strokeWidth=2;html=1;shape=mxgraph.flowchart.terminator;whiteSpace=wrap;direction=south;" vertex="1" parent="1">
          <mxGeometry x="537.21" y="654.5" width="15" height="15" as="geometry" />
        </mxCell>
        <mxCell id="LSE3tJzLOPeWC8bU5sy8-238" value="" style="strokeWidth=2;html=1;shape=mxgraph.flowchart.terminator;whiteSpace=wrap;direction=south;fillColor=#f0a30a;fontColor=#000000;strokeColor=#BD7000;" vertex="1" parent="1">
          <mxGeometry x="538.21" y="635.75" width="15" height="15" as="geometry" />
        </mxCell>
        <mxCell id="LSE3tJzLOPeWC8bU5sy8-239" value="" style="strokeWidth=2;html=1;shape=mxgraph.flowchart.terminator;whiteSpace=wrap;direction=south;fillColor=#60a917;fontColor=#ffffff;strokeColor=#2D7600;" vertex="1" parent="1">
          <mxGeometry x="538.21" y="618" width="15" height="15" as="geometry" />
        </mxCell>
        <mxCell id="LSE3tJzLOPeWC8bU5sy8-240" value="booked&amp;nbsp;" style="text;html=1;align=center;verticalAlign=middle;whiteSpace=wrap;rounded=0;" vertex="1" parent="1">
          <mxGeometry x="561.21" y="611" width="60" height="30" as="geometry" />
        </mxCell>
        <mxCell id="LSE3tJzLOPeWC8bU5sy8-241" value="selected" style="text;html=1;align=center;verticalAlign=middle;whiteSpace=wrap;rounded=0;" vertex="1" parent="1">
          <mxGeometry x="561.21" y="630" width="60" height="30" as="geometry" />
        </mxCell>
        <mxCell id="LSE3tJzLOPeWC8bU5sy8-242" value="available" style="text;html=1;align=center;verticalAlign=middle;whiteSpace=wrap;rounded=0;" vertex="1" parent="1">
          <mxGeometry x="560.21" y="648" width="60" height="30" as="geometry" />
        </mxCell>
        <mxCell id="LSE3tJzLOPeWC8bU5sy8-243" value="confirm seats" style="rounded=1;fillColor=#007FFF;strokeColor=none;html=1;whiteSpace=wrap;fontColor=#ffffff;align=center;verticalAlign=middle;fontStyle=0;fontSize=12;sketch=0;" vertex="1" parent="1">
          <mxGeometry x="411.21000000000004" y="982" width="190" height="18" as="geometry" />
        </mxCell>
        <mxCell id="LSE3tJzLOPeWC8bU5sy8-244" value="" style="strokeWidth=2;html=1;shape=mxgraph.flowchart.delay;whiteSpace=wrap;direction=north;fillColor=#007FFF;rotation=-180;" vertex="1" parent="1">
          <mxGeometry x="32.5" y="600" width="285" height="156" as="geometry" />
        </mxCell>
        <mxCell id="LSE3tJzLOPeWC8bU5sy8-246" value="&lt;font size=&quot;1&quot; color=&quot;#ffffff&quot;&gt;&lt;b style=&quot;font-size: 18px;&quot;&gt;Passenger Details&lt;/b&gt;&lt;/font&gt;" style="strokeWidth=1;shadow=0;dashed=0;align=center;html=1;shape=mxgraph.mockup.text.textBox;fontColor=#666666;align=left;fontSize=17;spacingLeft=4;spacingTop=-3;whiteSpace=wrap;strokeColor=none;mainText=;fillColor=none;" vertex="1" parent="1">
          <mxGeometry x="87.5" y="614" width="175" height="40" as="geometry" />
        </mxCell>
        <mxCell id="LSE3tJzLOPeWC8bU5sy8-247" value="New York" style="text;html=1;align=center;verticalAlign=middle;whiteSpace=wrap;rounded=0;fontColor=#FFFFFF;" vertex="1" parent="1">
          <mxGeometry x="56" y="663" width="60" height="30" as="geometry" />
        </mxCell>
        <mxCell id="LSE3tJzLOPeWC8bU5sy8-248" value="Los Angeles" style="text;html=1;align=center;verticalAlign=middle;whiteSpace=wrap;rounded=0;fontColor=#FFFFFF;" vertex="1" parent="1">
          <mxGeometry x="227.5" y="663" width="70" height="30" as="geometry" />
        </mxCell>
        <mxCell id="LSE3tJzLOPeWC8bU5sy8-249" value="" style="shape=mxgraph.signs.transportation.airplane_1;html=1;pointerEvents=1;fillColor=#000000;strokeColor=none;verticalLabelPosition=bottom;verticalAlign=top;align=center;" vertex="1" parent="1">
          <mxGeometry x="140" y="657" width="60" height="33" as="geometry" />
        </mxCell>
        <mxCell id="LSE3tJzLOPeWC8bU5sy8-250" value="Travel Date:30 th oct 2024" style="text;html=1;align=center;verticalAlign=middle;whiteSpace=wrap;rounded=0;fontColor=#FFFFFF;" vertex="1" parent="1">
          <mxGeometry x="97" y="691" width="160" height="30" as="geometry" />
        </mxCell>
        <mxCell id="LSE3tJzLOPeWC8bU5sy8-252" value="First name&amp;nbsp; *" style="html=1;shadow=0;dashed=0;shape=mxgraph.bootstrap.rrect;rSize=5;fillColor=none;strokeColor=#999999;align=left;spacing=15;fontSize=14;fontColor=#6C767D;" vertex="1" parent="1">
          <mxGeometry x="45" y="770" width="103.5" height="20" as="geometry" />
        </mxCell>
        <mxCell id="LSE3tJzLOPeWC8bU5sy8-253" value="Last name&amp;nbsp; *" style="html=1;shadow=0;dashed=0;shape=mxgraph.bootstrap.rrect;rSize=5;fillColor=none;strokeColor=#999999;align=left;spacing=15;fontSize=14;fontColor=#6C767D;" vertex="1" parent="1">
          <mxGeometry x="185.5" y="770" width="120" height="20" as="geometry" />
        </mxCell>
        <mxCell id="LSE3tJzLOPeWC8bU5sy8-254" value="Id Number&amp;nbsp; *" style="html=1;shadow=0;dashed=0;shape=mxgraph.bootstrap.rrect;rSize=5;fillColor=none;strokeColor=#999999;align=left;spacing=15;fontSize=14;fontColor=#6C767D;" vertex="1" parent="1">
          <mxGeometry x="44" y="810" width="120" height="20" as="geometry" />
        </mxCell>
        <mxCell id="LSE3tJzLOPeWC8bU5sy8-255" value="mobile e.g 01..&amp;nbsp; *" style="html=1;shadow=0;dashed=0;shape=mxgraph.bootstrap.rrect;rSize=5;fillColor=none;strokeColor=#999999;align=left;spacing=15;fontSize=14;fontColor=#6C767D;" vertex="1" parent="1">
          <mxGeometry x="180" y="810" width="125.5" height="20" as="geometry" />
        </mxCell>
        <mxCell id="LSE3tJzLOPeWC8bU5sy8-256" value="Gender: *" style="text;html=1;align=center;verticalAlign=middle;resizable=0;points=[];autosize=1;strokeColor=none;fillColor=none;" vertex="1" parent="1">
          <mxGeometry x="40" y="850" width="70" height="30" as="geometry" />
        </mxCell>
        <mxCell id="LSE3tJzLOPeWC8bU5sy8-257" value="" style="swimlane;shape=mxgraph.bootstrap.anchor;strokeColor=#999999;fillColor=#FF6666;fontColor=#666666;childLayout=stackLayout;horizontal=0;startSize=0;horizontalStack=1;resizeParent=1;resizeParentMax=0;resizeLast=0;collapsible=0;marginBottom=0;whiteSpace=wrap;html=1;" vertex="1" parent="1">
          <mxGeometry x="105" y="850" width="180" height="30" as="geometry" />
        </mxCell>
        <mxCell id="LSE3tJzLOPeWC8bU5sy8-258" value="Male" style="text;strokeColor=inherit;align=center;verticalAlign=middle;spacingLeft=10;spacingRight=10;overflow=hidden;points=[[0,0.5],[1,0.5]];portConstraint=eastwest;rotatable=0;whiteSpace=wrap;html=1;fillColor=inherit;fontColor=inherit;fontSize=17;" vertex="1" parent="LSE3tJzLOPeWC8bU5sy8-257">
          <mxGeometry width="90" height="30" as="geometry" />
        </mxCell>
        <mxCell id="LSE3tJzLOPeWC8bU5sy8-259" value="Female" style="text;align=center;verticalAlign=middle;spacingLeft=10;spacingRight=10;overflow=hidden;points=[[0,0.5],[1,0.5]];portConstraint=eastwest;rotatable=0;whiteSpace=wrap;html=1;fontSize=17;strokeColor=#999999;" vertex="1" parent="LSE3tJzLOPeWC8bU5sy8-257">
          <mxGeometry x="90" width="90" height="30" as="geometry" />
        </mxCell>
        <mxCell id="LSE3tJzLOPeWC8bU5sy8-264" value="&lt;b&gt;&lt;font style=&quot;font-size: 15px;&quot;&gt;$ 500&lt;/font&gt;&lt;/b&gt;" style="rounded=1;whiteSpace=wrap;html=1;fillColor=#E6E6E6;" vertex="1" parent="1">
          <mxGeometry x="168.99" y="910" width="71.01" height="30" as="geometry" />
        </mxCell>
        <mxCell id="LSE3tJzLOPeWC8bU5sy8-265" value="&lt;b&gt;AMMOUNT:&lt;/b&gt;" style="text;html=1;align=center;verticalAlign=middle;resizable=0;points=[];autosize=1;strokeColor=none;fillColor=none;" vertex="1" parent="1">
          <mxGeometry x="68" y="910" width="90" height="30" as="geometry" />
        </mxCell>
        <mxCell id="LSE3tJzLOPeWC8bU5sy8-266" value="Time:&amp;nbsp;09.00AM" style="text;html=1;align=center;verticalAlign=middle;whiteSpace=wrap;rounded=0;fontColor=#FFFFFF;" vertex="1" parent="1">
          <mxGeometry x="100" y="710" width="160" height="30" as="geometry" />
        </mxCell>
        <mxCell id="LSE3tJzLOPeWC8bU5sy8-267" value="Proceed To Pay" style="rounded=1;fillColor=#007FFF;strokeColor=none;html=1;whiteSpace=wrap;fontColor=#ffffff;align=center;verticalAlign=middle;fontStyle=0;fontSize=12;sketch=0;" vertex="1" parent="1">
          <mxGeometry x="70" y="960" width="190" height="30" as="geometry" />
        </mxCell>
        <mxCell id="LSE3tJzLOPeWC8bU5sy8-268" value="" style="strokeWidth=2;html=1;shape=mxgraph.flowchart.delay;whiteSpace=wrap;direction=north;fillColor=#007FFF;rotation=-180;" vertex="1" parent="1">
          <mxGeometry x="15.229999999999997" y="1140" width="285" height="46" as="geometry" />
        </mxCell>
        <mxCell id="LSE3tJzLOPeWC8bU5sy8-269" value="" style="shape=mxgraph.signs.transportation.airplane_1;html=1;pointerEvents=1;fillColor=#000000;strokeColor=none;verticalLabelPosition=bottom;verticalAlign=top;align=center;" vertex="1" parent="1">
          <mxGeometry x="115.22999999999999" y="1148" width="60" height="26" as="geometry" />
        </mxCell>
        <mxCell id="LSE3tJzLOPeWC8bU5sy8-271" value="&lt;b&gt;Booking Summary&lt;/b&gt;" style="text;html=1;align=center;verticalAlign=middle;resizable=0;points=[];autosize=1;strokeColor=none;fillColor=none;" vertex="1" parent="1">
          <mxGeometry x="90.22999999999999" y="1186" width="130" height="30" as="geometry" />
        </mxCell>
        <mxCell id="LSE3tJzLOPeWC8bU5sy8-272" value="&lt;b&gt;&lt;font color=&quot;#808080&quot;&gt;From:&lt;/font&gt;&lt;/b&gt;" style="text;html=1;align=center;verticalAlign=middle;resizable=0;points=[];autosize=1;strokeColor=none;fillColor=none;" vertex="1" parent="1">
          <mxGeometry x="15.229999999999997" y="1198.5" width="60" height="30" as="geometry" />
        </mxCell>
        <mxCell id="LSE3tJzLOPeWC8bU5sy8-273" value="&lt;b&gt;&lt;font color=&quot;#808080&quot;&gt;To:&lt;/font&gt;&lt;/b&gt;" style="text;html=1;align=center;verticalAlign=middle;resizable=0;points=[];autosize=1;strokeColor=none;fillColor=none;" vertex="1" parent="1">
          <mxGeometry x="18.229999999999997" y="1219" width="40" height="30" as="geometry" />
        </mxCell>
        <mxCell id="LSE3tJzLOPeWC8bU5sy8-274" value="&lt;b&gt;&lt;font color=&quot;#808080&quot;&gt;Date of Flight&lt;/font&gt;&lt;/b&gt;" style="text;html=1;align=center;verticalAlign=middle;resizable=0;points=[];autosize=1;strokeColor=none;fillColor=none;" vertex="1" parent="1">
          <mxGeometry x="18.229999999999997" y="1238" width="100" height="30" as="geometry" />
        </mxCell>
        <mxCell id="LSE3tJzLOPeWC8bU5sy8-275" value="&lt;font color=&quot;#808080&quot;&gt;&lt;b&gt;Departure Time:&lt;/b&gt;&lt;/font&gt;" style="text;html=1;align=center;verticalAlign=middle;resizable=0;points=[];autosize=1;strokeColor=none;fillColor=none;" vertex="1" parent="1">
          <mxGeometry x="16.229999999999997" y="1258" width="120" height="30" as="geometry" />
        </mxCell>
        <mxCell id="LSE3tJzLOPeWC8bU5sy8-276" value="&lt;b&gt;&lt;font color=&quot;#808080&quot;&gt;Number of Tickets:&lt;/font&gt;&lt;/b&gt;" style="text;html=1;align=center;verticalAlign=middle;resizable=0;points=[];autosize=1;strokeColor=none;fillColor=none;" vertex="1" parent="1">
          <mxGeometry x="19.229999999999997" y="1276" width="130" height="30" as="geometry" />
        </mxCell>
        <mxCell id="LSE3tJzLOPeWC8bU5sy8-277" value="&lt;b&gt;&lt;font color=&quot;#808080&quot;&gt;Total Amount&lt;/font&gt;&lt;/b&gt;" style="text;html=1;align=center;verticalAlign=middle;resizable=0;points=[];autosize=1;strokeColor=none;fillColor=none;" vertex="1" parent="1">
          <mxGeometry x="17.229999999999997" y="1299" width="100" height="30" as="geometry" />
        </mxCell>
        <mxCell id="LSE3tJzLOPeWC8bU5sy8-278" value="&lt;b&gt;&lt;font color=&quot;#808080&quot;&gt;New York&lt;/font&gt;&lt;/b&gt;" style="text;html=1;align=center;verticalAlign=middle;resizable=0;points=[];autosize=1;strokeColor=none;fillColor=none;" vertex="1" parent="1">
          <mxGeometry x="150.23" y="1203" width="80" height="30" as="geometry" />
        </mxCell>
        <mxCell id="LSE3tJzLOPeWC8bU5sy8-279" value="&lt;b&gt;&lt;font color=&quot;#808080&quot;&gt;Los Angeles&lt;/font&gt;&lt;/b&gt;" style="text;html=1;align=center;verticalAlign=middle;resizable=0;points=[];autosize=1;strokeColor=none;fillColor=none;" vertex="1" parent="1">
          <mxGeometry x="154.23" y="1220" width="90" height="30" as="geometry" />
        </mxCell>
        <mxCell id="LSE3tJzLOPeWC8bU5sy8-280" value="&lt;b&gt;&lt;font color=&quot;#808080&quot;&gt;30th Oct 2024&lt;/font&gt;&lt;/b&gt;" style="text;html=1;align=center;verticalAlign=middle;resizable=0;points=[];autosize=1;strokeColor=none;fillColor=none;" vertex="1" parent="1">
          <mxGeometry x="150.23" y="1238" width="100" height="30" as="geometry" />
        </mxCell>
        <mxCell id="LSE3tJzLOPeWC8bU5sy8-281" value="&lt;b&gt;&lt;font color=&quot;#808080&quot;&gt;09.00AM&lt;/font&gt;&lt;/b&gt;" style="text;html=1;align=center;verticalAlign=middle;resizable=0;points=[];autosize=1;strokeColor=none;fillColor=none;" vertex="1" parent="1">
          <mxGeometry x="152.23" y="1255" width="70" height="30" as="geometry" />
        </mxCell>
        <mxCell id="LSE3tJzLOPeWC8bU5sy8-282" value="&lt;b&gt;&lt;font color=&quot;#808080&quot;&gt;1&lt;/font&gt;&lt;/b&gt;" style="text;html=1;align=center;verticalAlign=middle;resizable=0;points=[];autosize=1;strokeColor=none;fillColor=none;" vertex="1" parent="1">
          <mxGeometry x="153.23" y="1277" width="30" height="30" as="geometry" />
        </mxCell>
        <mxCell id="LSE3tJzLOPeWC8bU5sy8-283" value="&lt;b&gt;&lt;font color=&quot;#808080&quot;&gt;$ 500&lt;/font&gt;&lt;/b&gt;" style="text;html=1;align=center;verticalAlign=middle;resizable=0;points=[];autosize=1;strokeColor=none;fillColor=none;" vertex="1" parent="1">
          <mxGeometry x="156.23" y="1299" width="50" height="30" as="geometry" />
        </mxCell>
        <mxCell id="LSE3tJzLOPeWC8bU5sy8-285" value="" style="dashed=0;outlineConnect=0;html=1;align=center;labelPosition=center;verticalLabelPosition=bottom;verticalAlign=top;shape=mxgraph.weblogos.paypal" vertex="1" parent="1">
          <mxGeometry x="58.23" y="1380" width="51.2" height="40" as="geometry" />
        </mxCell>
        <mxCell id="LSE3tJzLOPeWC8bU5sy8-286" value="" style="outlineConnect=0;dashed=0;verticalLabelPosition=bottom;verticalAlign=top;align=center;html=1;shape=mxgraph.aws3.bank;fillColor=#5294CF;gradientColor=none;" vertex="1" parent="1">
          <mxGeometry x="183.23" y="1380" width="77" height="40" as="geometry" />
        </mxCell>
        <mxCell id="LSE3tJzLOPeWC8bU5sy8-287" value="&lt;b&gt;Payable Amount:&lt;/b&gt;" style="text;html=1;align=center;verticalAlign=middle;resizable=0;points=[];autosize=1;strokeColor=none;fillColor=none;" vertex="1" parent="1">
          <mxGeometry x="30.229999999999997" y="1440" width="120" height="30" as="geometry" />
        </mxCell>
        <mxCell id="LSE3tJzLOPeWC8bU5sy8-289" value="&lt;b&gt;&lt;font style=&quot;font-size: 15px;&quot;&gt;$ 500&lt;/font&gt;&lt;/b&gt;" style="rounded=1;whiteSpace=wrap;html=1;fillColor=#E6E6E6;" vertex="1" parent="1">
          <mxGeometry x="164.72" y="1440" width="71.01" height="30" as="geometry" />
        </mxCell>
        <mxCell id="LSE3tJzLOPeWC8bU5sy8-290" value="PAY" style="rounded=1;fillColor=#007FFF;strokeColor=none;html=1;whiteSpace=wrap;fontColor=#ffffff;align=center;verticalAlign=middle;fontStyle=0;fontSize=12;sketch=0;" vertex="1" parent="1">
          <mxGeometry x="95.22999999999999" y="1500" width="130" height="30" as="geometry" />
        </mxCell>
        <mxCell id="LSE3tJzLOPeWC8bU5sy8-291" value="" style="strokeWidth=2;html=1;shape=mxgraph.flowchart.delay;whiteSpace=wrap;direction=north;fillColor=#007FFF;rotation=-180;" vertex="1" parent="1">
          <mxGeometry x="384.73" y="1148" width="285" height="84" as="geometry" />
        </mxCell>
        <mxCell id="LSE3tJzLOPeWC8bU5sy8-292" value="&lt;font size=&quot;1&quot; color=&quot;#ffffff&quot;&gt;&lt;b style=&quot;font-size: 18px;&quot;&gt;FlyTix&lt;/b&gt;&lt;/font&gt;" style="strokeWidth=1;shadow=0;dashed=0;align=center;html=1;shape=mxgraph.mockup.text.textBox;fontColor=#666666;align=left;fontSize=17;spacingLeft=4;spacingTop=-3;whiteSpace=wrap;strokeColor=none;mainText=;fillColor=none;" vertex="1" parent="1">
          <mxGeometry x="495.48" y="1148" width="52.5" height="40" as="geometry" />
        </mxCell>
        <mxCell id="LSE3tJzLOPeWC8bU5sy8-294" value="" style="shape=mxgraph.signs.transportation.airplane_1;html=1;pointerEvents=1;fillColor=#000000;strokeColor=none;verticalLabelPosition=bottom;verticalAlign=top;align=center;" vertex="1" parent="1">
          <mxGeometry x="502.23" y="1193" width="60" height="26" as="geometry" />
        </mxCell>
        <mxCell id="LSE3tJzLOPeWC8bU5sy8-295" value="Print Ticket" style="rounded=1;fillColor=#007FFF;strokeColor=none;html=1;whiteSpace=wrap;fontColor=#ffffff;align=center;verticalAlign=middle;fontStyle=0;fontSize=12;sketch=0;" vertex="1" parent="1">
          <mxGeometry x="435.23" y="1503" width="190" height="30" as="geometry" />
        </mxCell>
        <mxCell id="LSE3tJzLOPeWC8bU5sy8-298" value="&lt;b&gt;&lt;font color=&quot;#808080&quot;&gt;From:&lt;/font&gt;&lt;/b&gt;" style="text;html=1;align=center;verticalAlign=middle;resizable=0;points=[];autosize=1;strokeColor=none;fillColor=none;" vertex="1" parent="1">
          <mxGeometry x="400.23" y="1333" width="60" height="30" as="geometry" />
        </mxCell>
        <mxCell id="LSE3tJzLOPeWC8bU5sy8-299" value="&lt;b&gt;&lt;font color=&quot;#808080&quot;&gt;New York&lt;/font&gt;&lt;/b&gt;" style="text;html=1;align=center;verticalAlign=middle;resizable=0;points=[];autosize=1;strokeColor=none;fillColor=none;" vertex="1" parent="1">
          <mxGeometry x="532.23" y="1333" width="80" height="30" as="geometry" />
        </mxCell>
        <mxCell id="LSE3tJzLOPeWC8bU5sy8-300" value="&lt;b&gt;&lt;font color=&quot;#808080&quot;&gt;Name:&lt;/font&gt;&lt;/b&gt;" style="text;html=1;align=center;verticalAlign=middle;resizable=0;points=[];autosize=1;strokeColor=none;fillColor=none;" vertex="1" parent="1">
          <mxGeometry x="403.23" y="1238" width="60" height="30" as="geometry" />
        </mxCell>
        <mxCell id="LSE3tJzLOPeWC8bU5sy8-301" value="&lt;b&gt;&lt;font color=&quot;#808080&quot;&gt;Lucy Mutuku&lt;/font&gt;&lt;/b&gt;" style="text;html=1;align=center;verticalAlign=middle;resizable=0;points=[];autosize=1;strokeColor=none;fillColor=none;" vertex="1" parent="1">
          <mxGeometry x="528.23" y="1241.1100000000001" width="100" height="30" as="geometry" />
        </mxCell>
        <mxCell id="LSE3tJzLOPeWC8bU5sy8-303" value="&lt;b&gt;&lt;font color=&quot;#808080&quot;&gt;Id Number:&lt;/font&gt;&lt;/b&gt;" style="text;html=1;align=center;verticalAlign=middle;resizable=0;points=[];autosize=1;strokeColor=none;fillColor=none;" vertex="1" parent="1">
          <mxGeometry x="398.23" y="1261" width="90" height="30" as="geometry" />
        </mxCell>
        <mxCell id="LSE3tJzLOPeWC8bU5sy8-304" value="&lt;b&gt;&lt;font color=&quot;#808080&quot;&gt;1045121&lt;/font&gt;&lt;/b&gt;" style="text;html=1;align=center;verticalAlign=middle;resizable=0;points=[];autosize=1;strokeColor=none;fillColor=none;" vertex="1" parent="1">
          <mxGeometry x="528.23" y="1264" width="70" height="30" as="geometry" />
        </mxCell>
        <mxCell id="LSE3tJzLOPeWC8bU5sy8-306" value="&lt;b&gt;&lt;font color=&quot;#808080&quot;&gt;Mobile No:&lt;/font&gt;&lt;/b&gt;" style="text;html=1;align=center;verticalAlign=middle;resizable=0;points=[];autosize=1;strokeColor=none;fillColor=none;" vertex="1" parent="1">
          <mxGeometry x="403.23" y="1285" width="80" height="30" as="geometry" />
        </mxCell>
        <mxCell id="LSE3tJzLOPeWC8bU5sy8-307" value="&lt;b&gt;&lt;font color=&quot;#808080&quot;&gt;0702394964&lt;/font&gt;&lt;/b&gt;" style="text;html=1;align=center;verticalAlign=middle;resizable=0;points=[];autosize=1;strokeColor=none;fillColor=none;" vertex="1" parent="1">
          <mxGeometry x="527.23" y="1285" width="90" height="30" as="geometry" />
        </mxCell>
        <mxCell id="LSE3tJzLOPeWC8bU5sy8-308" value="&lt;b&gt;&lt;font color=&quot;#808080&quot;&gt;Gender:&lt;/font&gt;&lt;/b&gt;" style="text;html=1;align=center;verticalAlign=middle;resizable=0;points=[];autosize=1;strokeColor=none;fillColor=none;" vertex="1" parent="1">
          <mxGeometry x="402.23" y="1311" width="70" height="30" as="geometry" />
        </mxCell>
        <mxCell id="LSE3tJzLOPeWC8bU5sy8-309" value="&lt;b&gt;&lt;font color=&quot;#808080&quot;&gt;Female&lt;/font&gt;&lt;/b&gt;" style="text;html=1;align=center;verticalAlign=middle;resizable=0;points=[];autosize=1;strokeColor=none;fillColor=none;" vertex="1" parent="1">
          <mxGeometry x="532.73" y="1311" width="60" height="30" as="geometry" />
        </mxCell>
        <mxCell id="LSE3tJzLOPeWC8bU5sy8-312" value="&lt;b&gt;&lt;font color=&quot;#808080&quot;&gt;To:&lt;/font&gt;&lt;/b&gt;" style="text;html=1;align=center;verticalAlign=middle;resizable=0;points=[];autosize=1;strokeColor=none;fillColor=none;" vertex="1" parent="1">
          <mxGeometry x="407.23" y="1357" width="40" height="30" as="geometry" />
        </mxCell>
        <mxCell id="LSE3tJzLOPeWC8bU5sy8-313" value="&lt;b&gt;&lt;font color=&quot;#808080&quot;&gt;Los Angeles&lt;/font&gt;&lt;/b&gt;" style="text;html=1;align=center;verticalAlign=middle;resizable=0;points=[];autosize=1;strokeColor=none;fillColor=none;" vertex="1" parent="1">
          <mxGeometry x="537.23" y="1359" width="90" height="30" as="geometry" />
        </mxCell>
        <mxCell id="LSE3tJzLOPeWC8bU5sy8-314" value="&lt;b&gt;&lt;font color=&quot;#808080&quot;&gt;Date of Flight&lt;/font&gt;&lt;/b&gt;" style="text;html=1;align=center;verticalAlign=middle;resizable=0;points=[];autosize=1;strokeColor=none;fillColor=none;" vertex="1" parent="1">
          <mxGeometry x="400.23" y="1380" width="100" height="30" as="geometry" />
        </mxCell>
        <mxCell id="LSE3tJzLOPeWC8bU5sy8-315" value="&lt;b&gt;&lt;font color=&quot;#808080&quot;&gt;30th Oct 2024&lt;/font&gt;&lt;/b&gt;" style="text;html=1;align=center;verticalAlign=middle;resizable=0;points=[];autosize=1;strokeColor=none;fillColor=none;" vertex="1" parent="1">
          <mxGeometry x="531.23" y="1385" width="100" height="30" as="geometry" />
        </mxCell>
        <mxCell id="LSE3tJzLOPeWC8bU5sy8-316" value="&lt;font color=&quot;#808080&quot;&gt;&lt;b&gt;Departure Time:&lt;/b&gt;&lt;/font&gt;" style="text;html=1;align=center;verticalAlign=middle;resizable=0;points=[];autosize=1;strokeColor=none;fillColor=none;" vertex="1" parent="1">
          <mxGeometry x="396.23" y="1407" width="120" height="30" as="geometry" />
        </mxCell>
        <mxCell id="LSE3tJzLOPeWC8bU5sy8-317" value="&lt;b&gt;&lt;font color=&quot;#808080&quot;&gt;09.00AM&lt;/font&gt;&lt;/b&gt;" style="text;html=1;align=center;verticalAlign=middle;resizable=0;points=[];autosize=1;strokeColor=none;fillColor=none;" vertex="1" parent="1">
          <mxGeometry x="538.23" y="1406" width="70" height="30" as="geometry" />
        </mxCell>
        <mxCell id="LSE3tJzLOPeWC8bU5sy8-318" value="&lt;font color=&quot;#808080&quot;&gt;&lt;b&gt;Flight Class:&lt;/b&gt;&lt;/font&gt;" style="text;html=1;align=center;verticalAlign=middle;resizable=0;points=[];autosize=1;strokeColor=none;fillColor=none;" vertex="1" parent="1">
          <mxGeometry x="411.23" y="1430" width="100" height="30" as="geometry" />
        </mxCell>
        <mxCell id="LSE3tJzLOPeWC8bU5sy8-319" value="&lt;font color=&quot;#808080&quot;&gt;&lt;b&gt;Business&lt;/b&gt;&lt;/font&gt;" style="text;html=1;align=center;verticalAlign=middle;resizable=0;points=[];autosize=1;strokeColor=none;fillColor=none;" vertex="1" parent="1">
          <mxGeometry x="535.23" y="1430" width="80" height="30" as="geometry" />
        </mxCell>
      </root>
    </mxGraphModel>
  </diagram>
</mxfile>
